<?xml version="1.0" encoding="utf-8"?>
<svg width="800px" height="800px" viewBox="0 0 24 24" fill="none" xmlns="http://www.w3.org/2000/svg">
    <circle cx="8" cy="8" r="2.5" stroke="#222222" stroke-width="1.3" stroke-linecap="round"/>
    <path d="M13.4054 17.507L13.8992 17.4282L13.4054 17.507ZM12.5 18H3.50002V19H12.5V18ZM3.08839 17.5857C3.21821 16.7717 3.53039 15.6148 4.26396 14.671C4.97934 13.7507 6.11871 13 8.00002 13V12C5.80109 12 4.37371 12.9004 3.47442 14.0573C2.59334 15.1909 2.24293 16.5374 2.10087 17.4282L3.08839 17.5857ZM8.00002 13C9.88133 13 11.0207 13.7507 11.7361 14.671C12.4697 15.6148 12.7818 16.7717 12.9117 17.5857L13.8992 17.4282C13.7571 16.5374 13.4067 15.1909 12.5256 14.0573C11.6263 12.9004 10.199 12 8.00002 12V13ZM3.50002 18C3.20827 18 3.05697 17.7827 3.08839 17.5857L2.10087 17.4282C1.95832 18.322 2.6872 19 3.50002 19V18ZM12.5 19C13.3128 19 14.0417 18.322 13.8992 17.4282L12.9117 17.5857C12.9431 17.7827 12.7918 18 12.5 18V19Z"
          fill="#222222"/>
    <rect x="16.25" y="5.25" width="4.5" height="0.5" rx="0.25" stroke="#222222" stroke-width="0.8"
          stroke-linecap="round"/>
    <rect x="18.75" y="3.25" width="4.5" height="0.5" rx="0.25" transform="rotate(90 18.75 3.25)" stroke="#222222"
          stroke-width="0.8" stroke-linecap="round"/>
</svg>

